<svg width="48" height="48" xmlns="http://www.w3.org/2000/svg" xmlns:xlink="http://www.w3.org/1999/xlink" xml:space="preserve" overflow="hidden"><defs><clipPath id="clip0"><rect x="616" y="336" width="48" height="48"/></clipPath></defs><g clip-path="url(#clip0)" transform="translate(-616 -336)"><path d="M640 380C637.233 380 634.633 379.475 632.2 378.425 629.767 377.375 627.65 375.95 625.85 374.15 624.05 372.35 622.625 370.233 621.575 367.8 620.525 365.367 620 362.767 620 360 620 357.233 620.525 354.633 621.575 352.2 622.625 349.767 624.05 347.65 625.85 345.85 627.65 344.05 629.767 342.625 632.2 341.575 634.633 340.525 637.233 340 640 340 642.767 340 645.367 340.525 647.8 341.575 650.233 342.625 652.35 344.05 654.15 345.85 655.95 347.65 657.375 349.767 658.425 352.2 659.475 354.633 660 357.233 660 360 660 362.767 659.475 365.367 658.425 367.8 657.375 370.233 655.95 372.35 654.15 374.15 652.35 375.95 650.233 377.375 647.8 378.425 645.367 379.475 642.767 380 640 380ZM637.85 376.95 637.85 372.85C636.683 372.85 635.7 372.417 634.9 371.55 634.1 370.683 633.7 369.667 633.7 368.5L633.7 366.3 623.45 356.05C623.283 356.717 623.167 357.375 623.1 358.025 623.033 358.675 623 359.333 623 360 623 364.333 624.408 368.117 627.225 371.35 630.042 374.583 633.583 376.45 637.85 376.95ZM652.55 371.55C653.283 370.75 653.925 369.9 654.475 369 655.025 368.1 655.492 367.158 655.875 366.175 656.258 365.192 656.542 364.183 656.725 363.15 656.908 362.117 657 361.067 657 360 657 356.467 656.033 353.258 654.1 350.375 652.167 347.492 649.583 345.383 646.35 344.05L646.35 344.95C646.35 346.117 645.95 347.133 645.15 348 644.35 348.867 643.367 349.3 642.2 349.3L637.85 349.3 637.85 353.65C637.85 354.217 637.625 354.683 637.175 355.05 636.725 355.417 636.217 355.6 635.65 355.6L631.5 355.6 631.5 360 644.4 360C644.967 360 645.433 360.217 645.8 360.65 646.167 361.083 646.35 361.583 646.35 362.15L646.35 368.5 648.5 368.5C649.467 368.5 650.317 368.783 651.05 369.35 651.783 369.917 652.283 370.65 652.55 371.55Z" fill="#FFFFFF" fill-rule="nonzero" fill-opacity="1"/></g></svg>